<svg width="44" height="40" viewBox="0 0 44 40" fill="none" xmlns="http://www.w3.org/2000/svg">
<path d="M16.5839 16.1793C18.2534 16.1793 19.6068 14.8259 19.6068 13.1564C19.6068 11.4869 18.2534 10.1335 16.5839 10.1335C14.9144 10.1335 13.561 11.4869 13.561 13.1564C13.561 14.8259 14.9144 16.1793 16.5839 16.1793Z" fill="white"/>
<path d="M41.3969 24.2824C39.9695 22.9389 38.1641 22.0572 36.1908 21.8053V6.43889C36.1908 4.80149 35.5191 3.33202 34.4695 2.24042C33.3779 1.14881 31.9084 0.519043 30.271 0.519043H5.91985C4.28244 0.519043 2.81298 1.1908 1.72137 2.24042C0.629771 3.33202 0 4.80149 0 6.43889V25.7939V27.5992V31.5038C0 33.1412 0.671756 34.6106 1.72137 35.7023C2.81298 36.7939 4.28244 37.4236 5.91985 37.4236H29.4733C31.0267 38.6832 32.958 39.4809 35.0992 39.4809C37.5763 39.4809 39.8015 38.4732 41.3969 36.8778C42.9924 35.2824 44 33.0572 44 30.5801C44 28.103 42.9924 25.8778 41.3969 24.2824ZM2.22519 6.43889C2.22519 5.43126 2.64504 4.50759 3.31679 3.87782C3.98855 3.20607 4.91221 2.78622 5.91985 2.78622H30.271C31.2786 2.78622 32.2023 3.20607 32.874 3.87782C33.5458 4.54958 33.9656 5.47324 33.9656 6.48088V19.5801L27.7519 13.3664C27.3321 12.9465 26.6183 12.9045 26.1565 13.3664L16.7939 22.771L10.4542 16.3893C10.0344 15.9694 9.32061 15.9274 8.85878 16.3893L2.22519 23.1068V6.43889ZM5.87786 35.2824V35.1984C4.87023 35.1984 3.94656 34.7786 3.27481 34.1068C2.64504 33.4351 2.22519 32.5114 2.22519 31.5038V27.5992V26.2977L9.65649 18.8244L15.9962 25.1641C16.416 25.5839 17.1298 25.5839 17.5916 25.1641L26.9542 15.7595L33.084 21.9313C32.958 21.9732 32.8321 22.0152 32.7061 22.0572C32.5382 22.0992 32.3702 22.1412 32.1603 22.2252C31.9924 22.2671 31.8244 22.3511 31.6565 22.3931C31.5305 22.4351 31.4466 22.4771 31.3206 22.561C31.1527 22.645 31.0267 22.687 30.9008 22.771C30.6908 22.8969 30.4809 23.0229 30.271 23.1488C30.145 23.2328 30.0611 23.2748 29.9351 23.3587C29.8511 23.4007 29.8092 23.4427 29.7252 23.4847C29.3473 23.7366 29.0114 24.0305 28.7176 24.3664C27.1221 25.9618 26.1145 28.187 26.1145 30.6641C26.1145 31.2939 26.1985 31.8816 26.3244 32.5114C26.3664 32.6793 26.4084 32.8053 26.4504 32.9732C26.5763 33.3931 26.7023 33.8129 26.8702 34.2328V34.2748C27.0382 34.6106 27.2061 34.9885 27.416 35.2824H5.87786ZM39.7595 35.2824C38.542 36.5 36.9046 37.2137 35.0573 37.2137C33.2939 37.2137 31.6565 36.5 30.4809 35.3664C30.313 35.1984 30.145 34.9885 29.9771 34.8206C29.8511 34.6946 29.7252 34.5267 29.5992 34.4007C29.4313 34.1908 29.3053 33.9389 29.1794 33.687C29.0954 33.519 29.0114 33.3931 28.9275 33.2252C28.8435 33.0152 28.7595 32.7633 28.7176 32.5114C28.6756 32.3435 28.5916 32.1335 28.5496 31.9656C28.4656 31.5458 28.4237 31.0839 28.4237 30.6221C28.4237 28.7748 29.1794 27.1374 30.355 25.9198C31.5305 24.7022 33.2099 23.9885 35.0573 23.9885C36.9046 23.9885 38.542 24.7442 39.7595 25.9198C40.9771 27.1374 41.6908 28.7748 41.6908 30.6221C41.6908 32.4274 40.9351 34.0648 39.7595 35.2824Z" fill="white"/>
<path d="M35.8552 26.0878C35.7712 26.0039 35.6452 25.9199 35.4773 25.8359C35.3513 25.7939 35.2254 25.752 35.0994 25.752C35.0574 25.752 35.0574 25.752 35.0574 25.752C35.0155 25.752 35.0155 25.752 35.0155 25.752C34.8895 25.752 34.7636 25.7939 34.6376 25.8359C34.5116 25.8779 34.3857 25.9619 34.2597 26.0878L31.6567 28.6909C31.2368 29.1107 31.2368 29.8245 31.6567 30.2863C32.0765 30.7062 32.7903 30.7062 33.2521 30.2863L33.9239 29.6145V34.2329C33.9239 34.8626 34.4277 35.3665 35.0574 35.3665C35.6872 35.3665 36.191 34.8626 36.191 34.2329V29.6145L36.8628 30.2863C37.2826 30.7062 37.9964 30.7062 38.4582 30.2863C38.8781 29.8665 38.8781 29.1527 38.4582 28.6909L35.8552 26.0878Z" fill="white"/>
</svg>
